<svg width="115" height="19" viewBox="0 0 115 19" fill="none" xmlns="http://www.w3.org/2000/svg">
<path d="M8.57428 0.863999C10.7503 0.863999 12.5343 1.392 13.9263 2.448C15.3183 3.504 16.1583 4.928 16.4463 6.72H11.4783C11.2223 6.256 10.8463 5.888 10.3503 5.616C9.85428 5.344 9.27028 5.208 8.59828 5.208C7.44628 5.208 6.52628 5.6 5.83828 6.384C5.16628 7.152 4.83028 8.184 4.83028 9.48C4.83028 10.952 5.19028 12.072 5.91028 12.84C6.64628 13.592 7.71828 13.968 9.12628 13.968C9.92628 13.968 10.6303 13.776 11.2383 13.392C11.8463 13.008 12.3263 12.44 12.6783 11.688H7.97428V8.328H16.5903V13.008C15.9823 14.416 15.0063 15.624 13.6623 16.632C12.3343 17.624 10.6543 18.12 8.62228 18.12C6.89428 18.12 5.38228 17.76 4.08628 17.04C2.79028 16.304 1.79028 15.28 1.08628 13.968C0.398281 12.656 0.0542813 11.16 0.0542813 9.48C0.0542813 7.8 0.398281 6.312 1.08628 5.016C1.79028 3.704 2.78228 2.688 4.06228 1.968C5.34228 1.232 6.84628 0.863999 8.57428 0.863999ZM26.8823 0.743999C28.4823 0.743999 29.9383 1.12 31.2503 1.872C32.5783 2.608 33.6183 3.64 34.3703 4.968C35.1383 6.296 35.5223 7.792 35.5223 9.456C35.5223 11.12 35.1383 12.616 34.3703 13.944C33.6023 15.272 32.5543 16.312 31.2263 17.064C29.9143 17.8 28.4663 18.168 26.8823 18.168C25.2983 18.168 23.8423 17.8 22.5143 17.064C21.1863 16.312 20.1383 15.272 19.3703 13.944C18.6023 12.616 18.2183 11.12 18.2183 9.456C18.2183 7.792 18.6023 6.296 19.3703 4.968C20.1383 3.64 21.1863 2.608 22.5143 1.872C23.8423 1.12 25.2983 0.743999 26.8823 0.743999ZM26.8823 5.112C25.6823 5.112 24.7383 5.504 24.0503 6.288C23.3623 7.056 23.0183 8.112 23.0183 9.456C23.0183 10.768 23.3623 11.816 24.0503 12.6C24.7383 13.384 25.6823 13.776 26.8823 13.776C28.0663 13.776 29.0023 13.384 29.6903 12.6C30.3783 11.816 30.7223 10.768 30.7223 9.456C30.7223 8.112 30.3783 7.056 29.6903 6.288C29.0183 5.504 28.0823 5.112 26.8823 5.112Z" fill="black"/>
<path d="M50.3078 13.104C50.3078 14.048 50.0678 14.904 49.5878 15.672C49.1078 16.44 48.4038 17.048 47.4758 17.496C46.5478 17.944 45.4358 18.168 44.1398 18.168C42.1718 18.168 40.5478 17.696 39.2678 16.752C38.0038 15.808 37.3158 14.464 37.2038 12.72H42.2198C42.2678 13.312 42.4518 13.752 42.7718 14.04C43.0918 14.328 43.4838 14.472 43.9478 14.472C44.3638 14.472 44.6838 14.368 44.9078 14.16C45.1478 13.952 45.2678 13.656 45.2678 13.272C45.2678 12.76 45.0358 12.368 44.5718 12.096C44.1078 11.808 43.3718 11.496 42.3638 11.16C41.2918 10.792 40.4038 10.432 39.6998 10.08C39.0118 9.728 38.4118 9.2 37.8998 8.496C37.4038 7.792 37.1558 6.888 37.1558 5.784C37.1558 4.728 37.4278 3.824 37.9718 3.072C38.5158 2.304 39.2598 1.728 40.2038 1.344C41.1478 0.943999 42.2198 0.743999 43.4198 0.743999C45.3718 0.743999 46.9238 1.208 48.0758 2.136C49.2438 3.048 49.8838 4.336 49.9958 6H44.9318C44.8678 5.472 44.6998 5.08 44.4278 4.824C44.1718 4.568 43.8278 4.44 43.3958 4.44C43.0278 4.44 42.7398 4.536 42.5318 4.728C42.3238 4.92 42.2198 5.208 42.2198 5.592C42.2198 6.072 42.4438 6.448 42.8918 6.72C43.3558 6.992 44.0758 7.296 45.0518 7.632C46.1238 8.016 47.0118 8.392 47.7158 8.76C48.4198 9.128 49.0278 9.664 49.5398 10.368C50.0518 11.072 50.3078 11.984 50.3078 13.104ZM57.106 12.312V18H52.378V1.008H59.434C61.482 1.008 63.042 1.528 64.114 2.568C65.202 3.592 65.746 4.968 65.746 6.696C65.746 7.768 65.506 8.728 65.026 9.576C64.546 10.424 63.826 11.096 62.866 11.592C61.922 12.072 60.778 12.312 59.434 12.312H57.106ZM58.906 8.592C60.282 8.592 60.97 7.96 60.97 6.696C60.97 5.448 60.282 4.824 58.906 4.824H57.106V8.592H58.906ZM72.317 4.776V7.584H77.813V11.16H72.317V14.232H78.533V18H67.589V1.008H78.533V4.776H72.317ZM91.4185 15.168H85.3945L84.4585 18H79.4905L85.7065 1.08H91.1545L97.3465 18H92.3545L91.4185 15.168ZM90.2425 11.616L88.4185 6.096L86.5705 11.616H90.2425ZM107.929 9.312L114.505 18H108.817L103.465 10.488V18H98.7374V1.008H103.465V8.352L108.865 1.008H114.505L107.929 9.312Z" fill="#7655C7"/>
</svg>
